HIERARCHY
ROOT Hips
{
	OFFSET -0.001795 -0.223333 0.028219
	CHANNELS 6 Xposition Yposition Zposition Zrotation Yrotation Xrotation 
	JOINT LeftUpLeg
	{
		OFFSET 0.069520 -0.091406 -0.006815
		CHANNELS 3 Zrotation Yrotation Xrotation
		JOINT LeftLeg
		{
			OFFSET 0.034277 -0.375199 -0.004496
			CHANNELS 3 Zrotation Yrotation Xrotation
			JOINT LeftFoot
			{
				OFFSET -0.013596 -0.397961 -0.043693
				CHANNELS 3 Zrotation Yrotation Xrotation
				JOINT LeftToe
				{
					OFFSET 0.026358 -0.055791 0.119288
					CHANNELS 3 Zrotation Yrotation Xrotation
					End Site
					{
						OFFSET 0.000000 0.000000 0.000000
					}
				}
			}
		}
	}
	JOINT RightUpLeg
	{
		OFFSET -0.067670 -0.090522 -0.004320
		CHANNELS 3 Zrotation Yrotation Xrotation
		JOINT RightLeg
		{
			OFFSET -0.038290 -0.382569 -0.008850
			CHANNELS 3 Zrotation Yrotation Xrotation
			JOINT RightFoot
			{
				OFFSET 0.015774 -0.398415 -0.042312
				CHANNELS 3 Zrotation Yrotation Xrotation
				JOINT RightToe
				{
					OFFSET -0.025372 -0.048144 0.123348
					CHANNELS 3 Zrotation Yrotation Xrotation
					End Site
					{
						OFFSET 0.000000 0.000000 0.000000
					}
				}
			}
		}
	}
	JOINT Spine
	{
		OFFSET -0.002533 0.108963 -0.026696
		CHANNELS 3 Zrotation Yrotation Xrotation
		JOINT Spine1
		{
			OFFSET 0.005487 0.135180 0.001092
			CHANNELS 3 Zrotation Yrotation Xrotation
			JOINT Spine2
			{
				OFFSET 0.001457 0.052922 0.025425
				CHANNELS 3 Zrotation Yrotation Xrotation
				JOINT Neck
				{
					OFFSET -0.002778 0.213870 -0.042857
					CHANNELS 3 Zrotation Yrotation Xrotation
					JOINT Head
					{
						OFFSET 0.005152 0.064970 0.051349
						CHANNELS 3 Zrotation Yrotation Xrotation
						End Site
						{
							OFFSET 0.000000 0.000000 0.000000
						}
					}
				}
				JOINT LeftShoulder
				{
					OFFSET 0.078845 0.121749 -0.034090
					CHANNELS 3 Zrotation Yrotation Xrotation
					JOINT LeftArm
					{
						OFFSET 0.090977 0.030469 -0.008868
						CHANNELS 3 Zrotation Yrotation Xrotation
						JOINT LeftForeArm
						{
							OFFSET 0.259612 -0.012772 -0.027456
							CHANNELS 3 Zrotation Yrotation Xrotation
							JOINT LeftHand
							{
								OFFSET 0.249234 0.008986 -0.001171
								CHANNELS 3 Zrotation Yrotation Xrotation
								End Site
								{
									OFFSET 0.000000 0.000000 0.000000
								}
							}
						}
					}
				}
				JOINT RightShoulder
				{
					OFFSET -0.081759 0.118833 -0.038615
					CHANNELS 3 Zrotation Yrotation Xrotation
					JOINT RightArm
					{
						OFFSET -0.096012 0.032551 -0.009143
						CHANNELS 3 Zrotation Yrotation Xrotation
						JOINT RightForeArm
						{
							OFFSET -0.253742 -0.013329 -0.021401
							CHANNELS 3 Zrotation Yrotation Xrotation
							JOINT RightHand
							{
								OFFSET -0.255298 0.007772 -0.005559
								CHANNELS 3 Zrotation Yrotation Xrotation
								End Site
								{
									OFFSET 0.000000 0.000000 0.000000
								}
							}
						}
					}
				}
			}
		}
	}
}
MOTION
Frames: 16
Frame Time: 0.050000
-0.089435 0.873443 -0.290415 8.930055 9.412935 5.080331 7.671660 -1.328841 -23.458040 -10.897721 1.890742 25.556324 6.986243 13.662490 -3.728942 0.000000 0.000000 0.000000 -19.179857 -3.429457 -33.566970 13.679832 -8.249078 48.151919 -13.786527 -31.835875 1.517995 0.000000 0.000000 0.000000 4.245835 -3.988991 35.613756 8.507916 -2.065051 -15.474540 7.813021 13.722396 27.978910 1.030552 4.202876 -36.037261 0.000000 0.000000 0.000000 -33.828347 -4.732096 -8.047517 -43.027810 3.219051 -5.522284 -18.241281 -49.534548 8.690213 0.000000 0.000000 0.000000 18.112958 22.865904 15.679818 10.012841 29.481172 -1.124963 -28.338484 9.988390 -1.295013 0.000000 0.000000 0.000000 
-0.085358 0.878613 -0.291038 8.466272 9.442175 4.821875 7.877694 -1.230374 -22.498898 -10.491272 1.742096 24.403719 7.142848 14.192622 -2.790527 0.000000 0.000000 0.000000 -18.702751 -3.034155 -31.726539 13.724309 -7.881988 45.737837 -13.676571 -31.845103 0.957179 0.000000 0.000000 0.000000 3.669728 -3.512678 33.657570 8.427080 -2.074158 -15.212227 7.816874 12.804104 28.159781 0.273962 4.420302 -36.183437 0.000000 0.000000 0.000000 -34.074701 -4.811997 -7.683500 -43.363260 2.723872 -5.501066 -16.545089 -48.252947 7.805693 0.000000 0.000000 0.000000 17.738451 22.649454 15.238403 13.121227 29.799137 -0.707014 -29.046440 13.181058 -2.019434 0.000000 0.000000 0.000000 
-0.079583 0.885717 -0.291248 7.857309 9.735645 4.299485 7.898563 -1.133711 -20.873050 -9.775127 1.480315 23.023595 6.738657 13.532122 -1.765319 0.000000 0.000000 0.000000 -18.081740 -2.608672 -29.292418 13.639537 -7.426594 42.842238 -13.731273 -31.998584 1.029875 0.000000 0.000000 0.000000 3.505651 -3.263258 32.020185 8.433994 -2.116358 -14.892927 7.314206 12.294445 28.088945 0.906385 4.126912 -36.846530 0.000000 0.000000 0.000000 -33.580155 -5.464442 -6.912420 -43.303068 1.344543 -5.107597 -15.573319 -46.429153 7.109941 0.000000 0.000000 0.000000 18.351981 22.032378 15.081404 15.242419 29.595521 -0.510278 -30.455101 16.546842 -2.895778 0.000000 0.000000 0.000000 
-0.072143 0.893459 -0.291287 7.309423 9.526899 4.164004 7.892472 -1.035168 -19.379607 -9.468370 1.388105 21.227455 6.825610 13.983850 -0.497730 0.000000 0.000000 0.000000 -17.804756 -2.249660 -27.122665 13.373030 -6.730270 39.696270 -13.503378 -31.557813 1.196419 0.000000 0.000000 0.000000 3.074256 -2.830673 29.788340 8.411253 -2.174461 -14.408881 7.333594 11.741329 28.086890 0.550736 4.198910 -36.900580 0.000000 0.000000 0.000000 -33.669820 -5.535020 -6.609395 -42.894097 0.838048 -4.946408 -16.592728 -44.210123 7.245955 0.000000 0.000000 0.000000 17.982040 20.871516 14.177905 19.937849 28.375276 -0.049471 -32.523948 24.035886 -4.902063 0.000000 0.000000 0.000000 
-0.063153 0.901742 -0.291145 6.459016 9.450542 3.736449 8.085941 -0.902819 -17.485609 -9.063146 1.262031 19.324715 6.622431 13.845889 0.803406 0.000000 0.000000 0.000000 -16.943153 -1.781659 -24.685542 12.738229 -5.861830 36.168109 -13.744585 -31.939700 1.855706 0.000000 0.000000 0.000000 2.583708 -2.528688 28.468333 9.304681 -2.525500 -14.122530 6.995970 11.664239 27.956659 0.529668 4.208972 -37.026856 0.000000 0.000000 0.000000 -33.629595 -5.356342 -6.673134 -42.728096 0.400475 -4.790590 -17.779783 -42.832137 7.482326 0.000000 0.000000 0.000000 18.315579 19.448458 13.497869 23.280941 26.559302 0.008793 -34.375459 32.863253 -7.483078 0.000000 0.000000 0.000000 
-0.052943 0.909169 -0.291629 5.956749 9.616380 3.679475 7.687007 -0.877720 -16.136936 -8.277125 1.041252 17.362361 6.938797 14.795187 2.515683 0.000000 0.000000 0.000000 -16.676633 -1.519383 -22.331463 12.265798 -5.083230 32.024319 -13.748466 -31.743935 2.751300 0.000000 0.000000 0.000000 1.852043 -2.139891 26.578307 9.700623 -2.692578 -13.903150 7.023586 11.020365 28.275430 0.066284 4.341845 -36.821730 0.000000 0.000000 0.000000 -33.881450 -4.943472 -6.789202 -42.370162 0.007802 -4.699180 -20.227551 -41.365091 8.204448 0.000000 0.000000 0.000000 17.962673 17.751497 12.321953 28.013518 24.241938 0.047114 -34.563217 43.445873 -10.199288 0.000000 0.000000 0.000000 
-0.042013 0.915721 -0.292847 5.259070 9.616116 3.464015 7.744900 -0.800921 -14.749235 -8.051230 0.975007 15.276294 7.035414 15.167997 3.633439 0.000000 0.000000 0.000000 -16.305463 -1.275580 -20.343362 11.917848 -4.532739 28.985358 -13.851630 -31.775614 3.532630 0.000000 0.000000 0.000000 1.338212 -1.830375 24.763079 10.219230 -2.931976 -13.518706 6.876229 10.891980 28.379431 0.259413 4.264673 -37.222093 0.000000 0.000000 0.000000 -33.393564 -4.259204 -7.073984 -42.533045 0.170224 -4.854872 -21.441851 -41.100167 8.596910 0.000000 0.000000 0.000000 18.396955 16.206344 11.599101 31.541348 21.689236 -0.314261 -33.931749 53.398436 -12.398931 0.000000 0.000000 0.000000 
-0.030943 0.920782 -0.295164 4.791141 10.210702 3.594039 7.277416 -0.822448 -14.120155 -7.791032 0.881886 13.615111 7.095631 15.505853 4.823809 0.000000 0.000000 0.000000 -16.238202 -1.159053 -18.465024 11.749410 -4.131453 25.733271 -14.448602 -32.444923 5.254380 0.000000 0.000000 0.000000 0.678502 -1.484565 22.301338 10.347667 -3.049256 -12.923369 6.894086 10.125884 28.528964 -0.216081 4.419190 -36.921204 0.000000 0.000000 0.000000 -33.731693 -3.230672 -7.727974 -41.797665 0.167987 -4.799450 -23.995924 -40.796509 9.524333 0.000000 0.000000 0.000000 18.140478 15.034151 10.819896 34.951160 19.658574 -0.630977 -34.024563 62.752228 -14.730006 0.000000 0.000000 0.000000 
-0.020030 0.924981 -0.298124 4.250023 10.932968 3.431607 7.117745 -0.805230 -13.303793 -7.805825 0.845853 12.280053 7.034029 15.418987 4.982223 0.000000 0.000000 0.000000 -15.827964 -1.050319 -17.192246 10.980716 -3.685405 23.781628 -14.511865 -32.138722 6.601022 0.000000 0.000000 0.000000 0.120334 -1.256675 20.636115 10.404233 -3.063666 -12.911689 6.914082 9.928436 28.766631 -0.146949 4.447864 -36.567468 0.000000 0.000000 0.000000 -33.662523 -2.926011 -8.051282 -41.431348 1.088597 -5.034948 -25.520733 -41.352393 10.207949 0.000000 0.000000 0.000000 18.819296 14.410475 10.767405 35.763212 18.053979 -1.143009 -36.806371 69.310057 -18.394572 0.000000 0.000000 0.000000 
-0.009391 0.928289 -0.301518 3.442575 11.692645 3.592762 7.205450 -0.819627 -13.317369 -7.427802 0.745425 11.328021 6.886488 15.400583 6.009833 0.000000 0.000000 0.000000 -15.173101 -0.910265 -16.157234 10.556897 -3.325416 21.287583 -15.240041 -32.857326 8.533791 0.000000 0.000000 0.000000 -0.686471 -0.951200 18.292982 10.457111 -3.121574 -12.543190 6.860313 9.840463 28.775645 -0.607957 4.721424 -36.351409 0.000000 0.000000 0.000000 -33.878050 -2.469541 -8.670624 -40.680064 1.312939 -4.922986 -26.468033 -41.572786 10.581260 0.000000 0.000000 0.000000 19.690646 14.208473 11.059930 35.656400 17.968885 -1.289884 -44.299359 74.431251 -25.766351 0.000000 0.000000 0.000000 
0.001284 0.930775 -0.305126 2.870928 12.830024 3.652637 6.811869 -0.864303 -13.243365 -6.952379 0.627564 10.290692 6.665877 15.075559 6.104500 0.000000 0.000000 0.000000 -14.600772 -0.816893 -15.039406 10.179579 -3.094658 19.452624 -16.022518 -33.822638 9.832693 0.000000 0.000000 0.000000 -1.576866 -0.719637 16.654973 10.584132 -3.079516 -13.065971 6.782429 10.136500 28.960136 -0.336654 4.775398 -35.746641 0.000000 0.000000 0.000000 -33.859939 -2.312748 -9.324688 -40.402634 2.181738 -5.008444 -27.294435 -43.046337 11.173781 0.000000 0.000000 0.000000 19.932714 14.073797 11.348875 33.971966 19.353853 -1.076345 -50.676777 76.797774 -31.961961 0.000000 0.000000 0.000000 
0.012178 0.932181 -0.308800 2.305858 14.134568 3.929820 6.657420 -0.950331 -13.979473 -6.841097 0.569692 9.888924 6.483042 15.043742 7.007690 0.000000 0.000000 0.000000 -14.407636 -0.785042 -13.804592 10.029691 -2.918131 17.342605 -16.917136 -34.761018 11.523268 0.000000 0.000000 0.000000 -2.216566 -0.538083 14.824986 10.391942 -2.904331 -13.670520 6.650201 10.633988 29.462107 -0.874958 5.243781 -35.613924 0.000000 0.000000 0.000000 -34.267345 -1.910088 -10.511908 -39.689427 2.549009 -4.799737 -28.263045 -43.783638 11.612095 0.000000 0.000000 0.000000 19.730235 13.948059 11.597117 31.882454 20.608083 -0.923455 -62.343555 76.640853 -41.384820 0.000000 0.000000 0.000000 
0.023176 0.932197 -0.312322 1.919338 15.746328 4.248275 6.245742 -1.068768 -14.766703 -6.472054 0.466984 9.812012 6.133835 14.472258 6.714955 0.000000 0.000000 0.000000 -14.159849 -0.809430 -13.329787 10.202404 -2.978091 16.317258 -17.357003 -35.314758 12.010565 0.000000 0.000000 0.000000 -2.657208 -0.447832 13.801478 10.047655 -2.629783 -14.574540 6.505482 11.468400 29.799730 -0.455681 5.359808 -35.650889 0.000000 0.000000 0.000000 -34.318331 -2.059045 -11.511527 -39.398383 2.962153 -4.569808 -29.626449 -45.078762 12.280936 0.000000 0.000000 0.000000 19.037589 14.186062 12.026836 30.261960 23.220043 -0.434393 -65.182824 75.177533 -42.278597 0.000000 0.000000 0.000000 
0.033868 0.931720 -0.315292 1.497849 17.006164 4.452991 5.851892 -1.178818 -15.467242 -6.360715 0.410185 10.023577 5.753814 13.853117 6.515385 0.000000 0.000000 0.000000 -13.815461 -0.802740 -12.907988 9.857379 -2.885325 15.647337 -17.675974 -35.555377 12.712850 0.000000 0.000000 0.000000 -3.140618 -0.358199 12.919626 9.532096 -2.362784 -15.036249 6.668611 12.637978 30.225355 -0.587321 5.718346 -36.189616 0.000000 0.000000 0.000000 -33.906161 -1.885705 -12.586531 -39.533662 2.855740 -4.309171 -31.493189 -45.737177 12.955696 0.000000 0.000000 0.000000 17.954684 14.614152 12.372188 28.701501 25.605754 0.041716 -65.797161 72.640234 -40.592091 0.000000 0.000000 0.000000 
0.043823 0.931158 -0.317530 1.172463 18.494614 4.539584 5.489909 -1.287445 -16.051464 -6.040383 0.316161 10.286247 5.354095 13.148907 6.176259 0.000000 0.000000 0.000000 -13.676194 -0.836386 -12.354765 10.243959 -3.067563 15.251408 -18.118855 -36.045956 13.275246 0.000000 0.000000 0.000000 -3.565659 -0.313554 12.574175 8.879752 -2.024856 -15.734484 7.139599 13.706512 30.268613 -0.330252 5.905168 -36.052150 0.000000 0.000000 0.000000 -33.827612 -2.119190 -13.581780 -39.183835 3.296734 -4.042875 -33.930375 -46.551154 13.945361 0.000000 0.000000 0.000000 16.567359 14.791979 12.418866 27.701757 27.810375 0.555921 -63.856735 70.871762 -37.334293 0.000000 0.000000 0.000000 
0.052424 0.931314 -0.319219 0.969430 19.909191 4.588364 4.846042 -1.415428 -16.584140 -5.340483 0.169066 10.585466 4.729571 12.105974 5.987563 0.000000 0.000000 0.000000 -13.533350 -0.843240 -11.409388 10.245429 -3.091394 14.624582 -18.162542 -36.002131 13.559055 0.000000 0.000000 0.000000 -3.930850 -0.289160 12.488821 8.610567 -1.818033 -16.529982 7.187248 14.812418 30.651033 0.220366 5.975481 -36.122732 0.000000 0.000000 0.000000 -33.646024 -2.205144 -14.540928 -38.931411 3.320505 -3.765907 -36.517060 -46.745889 14.869844 0.000000 0.000000 0.000000 15.828635 15.441467 12.886156 25.862124 29.953300 0.890870 -59.435377 67.568936 -31.931131 0.000000 0.000000 0.000000 
